<svg width="40" height="32" viewBox="0 0 40 32" fill="none" xmlns="http://www.w3.org/2000/svg">
<g clip-path="url(#clip0)">
<path d="M3.728 22.56C3.728 22.976 3.576 23.344 3.272 23.664C2.968 23.984 2.584 24.144 2.12 24.144C1.672 24.144 1.288 23.992 0.968 23.688C0.664 23.368 0.512 23 0.512 22.584C0.512 22.152 0.664 21.784 0.968 21.48C1.272 21.16 1.656 21 2.12 21C2.584 21 2.968 21.152 3.272 21.456C3.576 21.76 3.728 22.128 3.728 22.56Z" fill="black" fill-opacity="0.28"/>
<path d="M14.8824 20.064H14.9304L19.9464 7.008H23.6424V24H21.2664V9.792H21.2184L15.5784 24H14.0664L8.45038 9.792H8.40238V24H6.09838V7.008H9.79438L14.8824 20.064ZM32.5301 13.344L36.5621 7.008H39.3461L33.9221 15.048L40.0901 24H37.0901L32.4341 16.848L27.8741 24H24.9461L31.0181 15L25.5461 7.008H28.4501L32.5301 13.344Z" fill="#0097A3"/>
</g>
<defs>
<clipPath id="clip0">
<rect width="40" height="32" fill="white"/>
</clipPath>
</defs>
</svg>